<svg width="157" height="243" viewBox="0 0 157 243" fill="none" xmlns="http://www.w3.org/2000/svg">
<g filter="url(#filter0_d_1:27)">
<g filter="url(#filter1_d_1:27)">
<path d="M81.3273 123.394C83.9847 120.117 85.3083 116.385 84.86 113.437C84.6181 111.767 83.8075 110.41 82.5231 109.548C77.9856 106.475 73.7873 101.579 73.7453 101.523L72.5201 100.101L72.6582 101.962C72.6954 102.444 72.9708 103.011 73.3468 103.554C69.07 101.276 65.9947 97.7345 64.2164 92.9832C62.627 88.7245 62.7143 85.0336 62.7167 84.9957L62.8944 80.3809L59.4379 91.746L61.1595 100.305L75.1664 108.491L75.3972 108.69C77.5976 110.458 79.4 112.726 80.6296 115.254C81.1541 116.325 81.2805 117.545 80.9766 118.707L80.9676 118.729L79.8433 125.255L81.3273 123.394Z" fill="#FF005C"/>
</g>
<path d="M62.1324 84.9647L60.0537 91.7636L61.6886 99.8972L75.4977 107.964L75.773 108.181C78.0533 110.008 79.8912 112.316 81.167 114.954C81.7442 116.15 81.8987 117.525 81.5562 118.813L80.8278 122.995C84.7533 118.132 85.5851 112.356 82.1565 110.034C77.4879 106.868 73.2632 101.91 73.2632 101.91C73.3649 103.159 75.7995 105.309 75.7995 105.309C61.621 99.9995 62.1324 84.9647 62.1324 84.9647ZM63.6772 75.7145L63.3638 85.0001C63.368 85.0538 63.279 88.6531 64.8379 92.7954C66.3242 96.7653 68.7508 99.8597 72.073 102.06C72.0664 102.045 72.0755 102.022 72.0689 102.007L71.7861 98.2686L74.2208 101.12C74.2629 101.176 78.4125 106 82.8766 109.03C84.2987 110 85.2 111.485 85.4832 113.341C85.9505 116.466 84.57 120.369 81.8203 123.777L78.8639 127.439L79.6597 122.804L80.3881 118.622L80.4063 118.577L80.4244 118.533C80.6805 117.521 80.5755 116.439 80.1104 115.509C78.9138 113.06 77.1601 110.864 75.0397 109.154L74.8443 108.996L61.1086 100.972L60.6395 100.689L60.5223 100.148L58.8652 92.0054L58.8091 91.6968L58.9046 91.3982L60.9676 84.6059L63.6772 75.7145Z" fill="#482041"/>
</g>
<path opacity="0.1" d="M80.86 123.554C80.86 123.554 83.4117 119.675 82.3802 114.683C81.3486 109.692 77.2312 108.711 75.7429 106.532C75.7429 106.532 76.89 108.689 77.6625 109.342C77.6625 109.342 71.2509 104.049 66.8102 102.3C62.3695 100.552 61.1849 93.2254 61.1849 93.2254L61.6738 84.0504L59.3925 91.5067L60.7856 98.321L61.6739 100.826L70.6976 106.238L76.15 109.646L80.3003 113.639L81.0807 116.282L80.4851 120.648L80.86 123.554Z" fill="#130F26"/>
<rect opacity="0.5" width="2.24398" height="2.24398" transform="matrix(0.68636 -0.727262 0.68636 0.727262 98.887 183.677)" fill="#FF005C"/>
<rect opacity="0.5" width="2.24398" height="2.24398" transform="matrix(0.68636 -0.727262 0.68636 0.727262 86.5077 167.281)" fill="#FF005C"/>
<rect opacity="0.5" width="2.24398" height="2.24398" transform="matrix(0.68636 -0.727262 0.68636 0.727262 91.8131 154.632)" fill="#FF005C"/>
<rect opacity="0.3" width="2.24398" height="2.24398" transform="matrix(0.68636 -0.727262 0.68636 0.727262 81.2023 185.082)" fill="#FF005C"/>
<rect opacity="0.3" width="2.24398" height="2.24398" transform="matrix(0.68636 -0.727262 0.68636 0.727262 86.5077 192.578)" fill="#FF005C"/>
<rect opacity="0.3" width="2.24398" height="2.24398" transform="matrix(0.68636 -0.727262 0.68636 0.727262 95.7921 171.965)" fill="#FF005C"/>
<g filter="url(#filter2_df_1:27)">
<path d="M74.0834 51L76 209H72L74.0834 51Z" fill="#FF005C"/>
<path d="M72.5067 208.5L74.0625 90.5032L75.4939 208.5H72.5067Z" stroke="#431E3E"/>
</g>
<g filter="url(#filter3_d_1:27)">
<g filter="url(#filter4_d_1:27)">
<path d="M55.5937 194.219C50.9234 187.043 49.0409 179.232 50.5691 173.376C51.4104 170.056 53.3332 167.489 56.1078 166.021C65.9153 160.777 75.4237 151.784 75.5204 151.68L78.2939 149.069L77.6216 152.796C77.4444 153.762 76.7687 154.848 75.895 155.865C85.0085 152.17 91.964 145.673 96.5576 136.46C100.666 128.2 101.27 120.733 101.273 120.656L101.89 111.304L106.463 134.973L101.179 151.882L71.1789 165.444L70.6711 165.795C65.8563 168.899 61.739 173.096 58.723 177.937C57.438 179.988 56.9248 182.424 57.2926 184.833L57.3061 184.879L58.1954 198.289L55.5937 194.219Z" fill="#FF005C"/>
</g>
<path d="M102.459 120.717L105.217 134.878L100.198 150.948L70.6218 164.311L70.0203 164.689C65.0317 167.894 60.8344 172.165 57.7019 177.219C56.2838 179.511 55.6814 182.253 56.1004 184.926L56.6863 193.52C49.7918 182.875 49.3341 171.042 56.7449 167.081C66.8366 161.678 76.4115 152.564 76.4115 152.564C75.9421 155.063 70.574 158.887 70.574 158.887C100.312 151.169 102.459 120.717 102.459 120.717ZM101.297 101.721L99.9662 120.528C99.9465 120.635 99.365 127.919 95.343 135.949C91.504 143.647 85.9523 149.38 78.7818 153.119C78.7984 153.088 78.7849 153.042 78.8015 153.011L80.1627 145.527L74.646 150.766C74.5492 150.87 65.1542 159.729 55.5038 164.901C52.4286 166.559 50.2957 169.365 49.3318 173.05C47.7279 179.259 49.6889 187.428 54.5177 194.888L59.7105 202.904L59.0842 193.381L58.4982 184.786L58.4711 184.693L58.4439 184.599C58.141 182.502 58.5815 180.341 59.7169 178.563C62.6498 173.872 66.6537 169.81 71.2947 166.808L71.7224 166.531L101.141 153.24L102.148 152.769L102.498 151.701L107.565 135.618L107.743 135.007L107.613 134.384L104.886 120.239L101.297 101.721Z" fill="#482041"/>
</g>
<path opacity="0.1" d="M56.5031 194.641C56.5031 194.641 52.1732 186.272 55.3105 176.416C58.4479 166.559 66.9651 165.451 70.4296 161.368C70.4296 161.368 67.6586 165.478 65.9614 166.633C65.9614 166.633 80.0206 157.306 89.3527 154.716C98.6849 152.126 102.625 137.589 102.625 137.589L103.578 118.968L106.606 134.499L102.353 147.958L100.031 152.826L80.6746 161.841L68.9495 167.567L59.729 174.748L57.5951 179.917L57.8742 188.855L56.5031 194.641Z" fill="#130F26"/>
<defs>
<filter id="filter0_d_1:27" x="28.8091" y="49.7144" width="86.7637" height="111.725" filterUnits="userSpaceOnUse" color-interpolation-filters="sRGB">
<feFlood flood-opacity="0" result="BackgroundImageFix"/>
<feColorMatrix in="SourceAlpha" type="matrix" values="0 0 0 0 0 0 0 0 0 0 0 0 0 0 0 0 0 0 127 0" result="hardAlpha"/>
<feOffset dy="4"/>
<feGaussianBlur stdDeviation="15"/>
<feComposite in2="hardAlpha" operator="out"/>
<feColorMatrix type="matrix" values="0 0 0 0 0.976471 0 0 0 0 0 0 0 0 0 0.376471 0 0 0 0.3 0"/>
<feBlend mode="normal" in2="BackgroundImageFix" result="effect1_dropShadow_1:27"/>
<feBlend mode="normal" in="SourceGraphic" in2="effect1_dropShadow_1:27" result="shape"/>
</filter>
<filter id="filter1_d_1:27" x="9.43791" y="0.380859" width="125.508" height="144.875" filterUnits="userSpaceOnUse" color-interpolation-filters="sRGB">
<feFlood flood-opacity="0" result="BackgroundImageFix"/>
<feColorMatrix in="SourceAlpha" type="matrix" values="0 0 0 0 0 0 0 0 0 0 0 0 0 0 0 0 0 0 127 0" result="hardAlpha"/>
<feOffset dy="-30"/>
<feGaussianBlur stdDeviation="25"/>
<feComposite in2="hardAlpha" operator="out"/>
<feColorMatrix type="matrix" values="0 0 0 0 0.933333 0 0 0 0 0.211765 0 0 0 0 0.298039 0 0 0 0.4 0"/>
<feBlend mode="normal" in2="BackgroundImageFix" result="effect1_dropShadow_1:27"/>
<feBlend mode="normal" in="SourceGraphic" in2="effect1_dropShadow_1:27" result="shape"/>
</filter>
<filter id="filter2_df_1:27" x="42" y="25" width="64" height="218" filterUnits="userSpaceOnUse" color-interpolation-filters="sRGB">
<feFlood flood-opacity="0" result="BackgroundImageFix"/>
<feColorMatrix in="SourceAlpha" type="matrix" values="0 0 0 0 0 0 0 0 0 0 0 0 0 0 0 0 0 0 127 0" result="hardAlpha"/>
<feOffset dy="4"/>
<feGaussianBlur stdDeviation="15"/>
<feComposite in2="hardAlpha" operator="out"/>
<feColorMatrix type="matrix" values="0 0 0 0 0.976471 0 0 0 0 0 0 0 0 0 0.376471 0 0 0 1 0"/>
<feBlend mode="normal" in2="BackgroundImageFix" result="effect1_dropShadow_1:27"/>
<feBlend mode="normal" in="SourceGraphic" in2="effect1_dropShadow_1:27" result="shape"/>
<feGaussianBlur stdDeviation="2.5" result="effect2_foregroundBlur_1:27"/>
</filter>
<filter id="filter3_d_1:27" x="18.7824" y="75.7209" width="118.961" height="161.183" filterUnits="userSpaceOnUse" color-interpolation-filters="sRGB">
<feFlood flood-opacity="0" result="BackgroundImageFix"/>
<feColorMatrix in="SourceAlpha" type="matrix" values="0 0 0 0 0 0 0 0 0 0 0 0 0 0 0 0 0 0 127 0" result="hardAlpha"/>
<feOffset dy="4"/>
<feGaussianBlur stdDeviation="15"/>
<feComposite in2="hardAlpha" operator="out"/>
<feColorMatrix type="matrix" values="0 0 0 0 0.976471 0 0 0 0 0 0 0 0 0 0.376471 0 0 0 0.3 0"/>
<feBlend mode="normal" in2="BackgroundImageFix" result="effect1_dropShadow_1:27"/>
<feBlend mode="normal" in="SourceGraphic" in2="effect1_dropShadow_1:27" result="shape"/>
</filter>
<filter id="filter4_d_1:27" x="0.0483017" y="31.3044" width="156.415" height="186.985" filterUnits="userSpaceOnUse" color-interpolation-filters="sRGB">
<feFlood flood-opacity="0" result="BackgroundImageFix"/>
<feColorMatrix in="SourceAlpha" type="matrix" values="0 0 0 0 0 0 0 0 0 0 0 0 0 0 0 0 0 0 127 0" result="hardAlpha"/>
<feOffset dy="-30"/>
<feGaussianBlur stdDeviation="25"/>
<feComposite in2="hardAlpha" operator="out"/>
<feColorMatrix type="matrix" values="0 0 0 0 0.933333 0 0 0 0 0.211765 0 0 0 0 0.298039 0 0 0 0.4 0"/>
<feBlend mode="normal" in2="BackgroundImageFix" result="effect1_dropShadow_1:27"/>
<feBlend mode="normal" in="SourceGraphic" in2="effect1_dropShadow_1:27" result="shape"/>
</filter>
</defs>
</svg>
