<svg width="1440" height="4581" viewBox="0 0 1440 4581" fill="none" xmlns="http://www.w3.org/2000/svg">
<path d="M240.08 314C240.08 306.227 246.6 317.5 255 317.5C263.4 317.5 302.287 326 320.265 332L333.152 314H355.108L372.29 332L428.611 299.5L460.113 314L483.023 299.5L515.5 277.5L553.185 270.5L633.848 246.5C649.281 247 680.814 246 683.487 238C686.16 230 701.465 212 708.784 204L738.853 219.5L858.654 270.5L900.179 299.5L1004.71 314H1168.42C1187.35 320 1226.55 332 1231.9 332C1237.24 332 1336.9 336.667 1386.07 339L1440 356H0L31.5015 332L79.5 322.5L94 305.5L106.5 306.227L128.5 317.5L149 313.023H165L185 306.227L204.5 317.5L223.29 313.023L240.08 314Z" fill="#1A1629"/>
<rect y="346" width="1440" height="4235" fill="#1A1629"/>
<g filter="url(#filter0_d_1:23)">
<g filter="url(#filter1_d_1:23)">
<path d="M719.327 123.394C721.985 120.117 723.308 116.385 722.86 113.437C722.618 111.767 721.807 110.41 720.523 109.548C715.986 106.475 711.787 101.579 711.745 101.523L710.52 100.101L710.658 101.962C710.695 102.444 710.971 103.011 711.347 103.554C707.07 101.276 703.995 97.7345 702.216 92.9832C700.627 88.7245 700.714 85.0336 700.717 84.9957L700.894 80.3809L697.438 91.746L699.159 100.305L713.166 108.491L713.397 108.69C715.598 110.458 717.4 112.726 718.63 115.254C719.154 116.325 719.28 117.545 718.977 118.707L718.968 118.729L717.843 125.255L719.327 123.394Z" fill="#FF005C"/>
</g>
<path d="M700.132 84.9647L698.054 91.7636L699.689 99.8972L713.498 107.964L713.773 108.181C716.053 110.008 717.891 112.316 719.167 114.954C719.744 116.15 719.899 117.525 719.556 118.813L718.828 122.995C722.753 118.132 723.585 112.356 720.156 110.034C715.488 106.868 711.263 101.91 711.263 101.91C711.365 103.159 713.799 105.309 713.799 105.309C699.621 99.9995 700.132 84.9647 700.132 84.9647ZM701.677 75.7145L701.364 85.0001C701.368 85.0538 701.279 88.6531 702.838 92.7954C704.324 96.7653 706.751 99.8597 710.073 102.06C710.066 102.045 710.076 102.022 710.069 102.007L709.786 98.2686L712.221 101.12C712.263 101.176 716.413 106 720.877 109.03C722.299 110 723.2 111.485 723.483 113.341C723.95 116.466 722.57 120.369 719.82 123.777L716.864 127.439L717.66 122.804L718.388 118.622L718.406 118.577L718.424 118.533C718.68 117.521 718.576 116.439 718.11 115.509C716.914 113.06 715.16 110.864 713.04 109.154L712.844 108.996L699.109 100.972L698.64 100.689L698.522 100.148L696.865 92.0054L696.809 91.6968L696.905 91.3982L698.968 84.6059L701.677 75.7145Z" fill="#482041"/>
</g>
<path opacity="0.1" d="M718.86 123.554C718.86 123.554 721.412 119.675 720.38 114.683C719.349 109.692 715.231 108.711 713.743 106.532C713.743 106.532 714.89 108.689 715.662 109.342C715.662 109.342 709.251 104.049 704.81 102.3C700.37 100.552 699.185 93.2254 699.185 93.2254L699.674 84.0504L697.393 91.5067L698.786 98.321L699.674 100.826L708.698 106.238L714.15 109.646L718.3 113.639L719.081 116.282L718.485 120.648L718.86 123.554Z" fill="#130F26"/>
<rect opacity="0.5" width="2.24398" height="2.24398" transform="matrix(0.68636 -0.727262 0.68636 0.727262 736.887 183.677)" fill="#FF005C"/>
<rect opacity="0.5" width="2.24398" height="2.24398" transform="matrix(0.68636 -0.727262 0.68636 0.727262 724.508 167.281)" fill="#FF005C"/>
<rect opacity="0.5" width="2.24398" height="2.24398" transform="matrix(0.68636 -0.727262 0.68636 0.727262 729.813 154.632)" fill="#FF005C"/>
<rect opacity="0.3" width="2.24398" height="2.24398" transform="matrix(0.68636 -0.727262 0.68636 0.727262 719.202 185.082)" fill="#FF005C"/>
<rect opacity="0.3" width="2.24398" height="2.24398" transform="matrix(0.68636 -0.727262 0.68636 0.727262 724.508 192.578)" fill="#FF005C"/>
<rect opacity="0.3" width="2.24398" height="2.24398" transform="matrix(0.68636 -0.727262 0.68636 0.727262 733.792 171.965)" fill="#FF005C"/>
<g filter="url(#filter2_df_1:23)">
<path d="M712.083 51L714 209H710L712.083 51Z" fill="#FF005C"/>
<path d="M710.507 208.5L712.063 90.5032L713.494 208.5H710.507Z" stroke="#431E3E"/>
</g>
<g filter="url(#filter3_d_1:23)">
<g filter="url(#filter4_d_1:23)">
<path d="M693.594 194.219C688.923 187.043 687.041 179.232 688.569 173.376C689.41 170.056 691.333 167.489 694.108 166.021C703.915 160.777 713.424 151.784 713.52 151.68L716.294 149.069L715.622 152.796C715.444 153.762 714.769 154.848 713.895 155.865C723.008 152.17 729.964 145.673 734.558 136.46C738.666 128.2 739.27 120.733 739.273 120.656L739.89 111.304L744.463 134.973L739.179 151.882L709.179 165.444L708.671 165.795C703.856 168.899 699.739 173.096 696.723 177.937C695.438 179.988 694.925 182.424 695.293 184.833L695.306 184.879L696.195 198.289L693.594 194.219Z" fill="#FF005C"/>
</g>
<path d="M740.459 120.717L743.217 134.878L738.198 150.948L708.622 164.311L708.02 164.689C703.032 167.894 698.834 172.165 695.702 177.219C694.284 179.511 693.681 182.253 694.1 184.926L694.686 193.52C687.792 182.875 687.334 171.042 694.745 167.081C704.837 161.678 714.411 152.564 714.411 152.564C713.942 155.063 708.574 158.887 708.574 158.887C738.312 151.169 740.459 120.717 740.459 120.717ZM739.297 101.721L737.966 120.528C737.947 120.635 737.365 127.919 733.343 135.949C729.504 143.647 723.952 149.38 716.782 153.119C716.798 153.088 716.785 153.042 716.801 153.011L718.163 145.527L712.646 150.766C712.549 150.87 703.154 159.729 693.504 164.901C690.429 166.559 688.296 169.365 687.332 173.05C685.728 179.259 687.689 187.428 692.518 194.888L697.71 202.904L697.084 193.381L696.498 184.786L696.471 184.693L696.444 184.599C696.141 182.502 696.582 180.341 697.717 178.563C700.65 173.872 704.654 169.81 709.295 166.808L709.722 166.531L739.141 153.24L740.148 152.769L740.498 151.701L745.565 135.618L745.743 135.007L745.613 134.384L742.886 120.239L739.297 101.721Z" fill="#482041"/>
</g>
<path opacity="0.1" d="M694.503 194.641C694.503 194.641 690.173 186.272 693.311 176.416C696.448 166.559 704.965 165.451 708.43 161.368C708.43 161.368 705.659 165.478 703.961 166.633C703.961 166.633 718.021 157.306 727.353 154.716C736.685 152.126 740.625 137.589 740.625 137.589L741.578 118.968L744.606 134.499L740.353 147.958L738.031 152.826L718.675 161.841L706.95 167.567L697.729 174.748L695.595 179.917L695.874 188.855L694.503 194.641Z" fill="#130F26"/>
<defs>
<filter id="filter0_d_1:23" x="666.809" y="49.7144" width="86.7637" height="111.725" filterUnits="userSpaceOnUse" color-interpolation-filters="sRGB">
<feFlood flood-opacity="0" result="BackgroundImageFix"/>
<feColorMatrix in="SourceAlpha" type="matrix" values="0 0 0 0 0 0 0 0 0 0 0 0 0 0 0 0 0 0 127 0" result="hardAlpha"/>
<feOffset dy="4"/>
<feGaussianBlur stdDeviation="15"/>
<feComposite in2="hardAlpha" operator="out"/>
<feColorMatrix type="matrix" values="0 0 0 0 0.976471 0 0 0 0 0 0 0 0 0 0.376471 0 0 0 0.3 0"/>
<feBlend mode="normal" in2="BackgroundImageFix" result="effect1_dropShadow_1:23"/>
<feBlend mode="normal" in="SourceGraphic" in2="effect1_dropShadow_1:23" result="shape"/>
</filter>
<filter id="filter1_d_1:23" x="647.438" y="0.380859" width="125.508" height="144.875" filterUnits="userSpaceOnUse" color-interpolation-filters="sRGB">
<feFlood flood-opacity="0" result="BackgroundImageFix"/>
<feColorMatrix in="SourceAlpha" type="matrix" values="0 0 0 0 0 0 0 0 0 0 0 0 0 0 0 0 0 0 127 0" result="hardAlpha"/>
<feOffset dy="-30"/>
<feGaussianBlur stdDeviation="25"/>
<feComposite in2="hardAlpha" operator="out"/>
<feColorMatrix type="matrix" values="0 0 0 0 0.933333 0 0 0 0 0.211765 0 0 0 0 0.298039 0 0 0 0.4 0"/>
<feBlend mode="normal" in2="BackgroundImageFix" result="effect1_dropShadow_1:23"/>
<feBlend mode="normal" in="SourceGraphic" in2="effect1_dropShadow_1:23" result="shape"/>
</filter>
<filter id="filter2_df_1:23" x="680" y="25" width="64" height="218" filterUnits="userSpaceOnUse" color-interpolation-filters="sRGB">
<feFlood flood-opacity="0" result="BackgroundImageFix"/>
<feColorMatrix in="SourceAlpha" type="matrix" values="0 0 0 0 0 0 0 0 0 0 0 0 0 0 0 0 0 0 127 0" result="hardAlpha"/>
<feOffset dy="4"/>
<feGaussianBlur stdDeviation="15"/>
<feComposite in2="hardAlpha" operator="out"/>
<feColorMatrix type="matrix" values="0 0 0 0 0.976471 0 0 0 0 0 0 0 0 0 0.376471 0 0 0 1 0"/>
<feBlend mode="normal" in2="BackgroundImageFix" result="effect1_dropShadow_1:23"/>
<feBlend mode="normal" in="SourceGraphic" in2="effect1_dropShadow_1:23" result="shape"/>
<feGaussianBlur stdDeviation="2.5" result="effect2_foregroundBlur_1:23"/>
</filter>
<filter id="filter3_d_1:23" x="656.782" y="75.7209" width="118.961" height="161.183" filterUnits="userSpaceOnUse" color-interpolation-filters="sRGB">
<feFlood flood-opacity="0" result="BackgroundImageFix"/>
<feColorMatrix in="SourceAlpha" type="matrix" values="0 0 0 0 0 0 0 0 0 0 0 0 0 0 0 0 0 0 127 0" result="hardAlpha"/>
<feOffset dy="4"/>
<feGaussianBlur stdDeviation="15"/>
<feComposite in2="hardAlpha" operator="out"/>
<feColorMatrix type="matrix" values="0 0 0 0 0.976471 0 0 0 0 0 0 0 0 0 0.376471 0 0 0 0.3 0"/>
<feBlend mode="normal" in2="BackgroundImageFix" result="effect1_dropShadow_1:23"/>
<feBlend mode="normal" in="SourceGraphic" in2="effect1_dropShadow_1:23" result="shape"/>
</filter>
<filter id="filter4_d_1:23" x="638.048" y="31.3044" width="156.415" height="186.985" filterUnits="userSpaceOnUse" color-interpolation-filters="sRGB">
<feFlood flood-opacity="0" result="BackgroundImageFix"/>
<feColorMatrix in="SourceAlpha" type="matrix" values="0 0 0 0 0 0 0 0 0 0 0 0 0 0 0 0 0 0 127 0" result="hardAlpha"/>
<feOffset dy="-30"/>
<feGaussianBlur stdDeviation="25"/>
<feComposite in2="hardAlpha" operator="out"/>
<feColorMatrix type="matrix" values="0 0 0 0 0.933333 0 0 0 0 0.211765 0 0 0 0 0.298039 0 0 0 0.4 0"/>
<feBlend mode="normal" in2="BackgroundImageFix" result="effect1_dropShadow_1:23"/>
<feBlend mode="normal" in="SourceGraphic" in2="effect1_dropShadow_1:23" result="shape"/>
</filter>
</defs>
</svg>
