<svg width="837" height="842" viewBox="0 0 837 842" fill="none" xmlns="http://www.w3.org/2000/svg">
<path d="M312.917 436.91C285.144 414.185 267.698 385.385 266.358 360.054C265.499 345.729 269.916 333.034 279.13 323.643C311.633 290.236 338.176 242.237 338.429 241.697L346.187 227.743L348.239 243.483C348.76 247.567 347.441 252.763 345.244 257.933C376.943 231.593 396.464 196.808 403.099 154.174C409.009 115.969 401.93 85.3783 401.845 85.0665L392.423 46.9364L440.77 135.647L441.159 209.892L338.585 302.184L337.003 304.231C321.72 322.747 310.611 344.74 304.72 367.909C302.194 377.733 303.241 388.113 307.771 397.263L307.884 397.433L328.479 449.857L312.917 436.91Z" fill="#FF005C" stroke="#130F26" stroke-width="3" stroke-miterlimit="10"/>
<path d="M406.659 83.8035L435.672 136.854L436.052 207.411L334.92 298.365L332.998 300.64C317.15 319.782 305.815 342.173 299.728 366.335C296.979 377.295 298.058 389.009 303.128 399.15L316.392 432.729C275.328 398.979 258.46 352.304 283.021 327.064C316.457 292.662 343.111 244.094 343.111 244.094C344.414 254.673 327.836 276.768 327.836 276.768C436.79 208.146 406.659 83.8035 406.659 83.8035ZM377.874 9.41765L396.463 86.2178C396.521 86.6715 403.456 116.497 397.6 153.68C392.052 189.303 377.167 219.251 353.283 243.297C353.311 243.155 353.197 242.986 353.225 242.844L349.148 211.223L333.776 239.158C333.522 239.698 307.261 287.016 275.295 319.938C265.12 330.466 260.168 344.383 261.003 360.325C262.489 387.16 280.702 417.291 309.47 440.949L340.395 466.361L325.791 429.126L312.527 395.547L312.299 395.207L312.072 394.867C308.197 386.878 307.21 377.689 309.484 369.143C315.235 346.684 326.062 325.372 340.781 307.482L342.137 305.833L442.731 215.363L446.152 212.203L446.197 207.494L445.987 136.822L445.923 134.156L444.614 131.833L415.743 78.8109L377.874 9.41765Z" fill="#2D1429"/>
<path opacity="0.1" d="M317.084 437.437C317.084 437.437 289.156 409.52 289.158 366.169C289.16 322.818 321.766 307.569 330.413 286.86C330.413 286.86 324.569 306.794 319.259 313.563C319.259 313.563 363.552 258.445 397.529 236.24C431.506 214.035 428.765 150.975 428.765 150.975L408.904 75.3989L440.736 133.576L440.86 192.729L437.772 215.123L371.928 275.725L332.38 313.494L304.684 353.894L302.732 377.249L315.206 412.589L317.084 437.437Z" fill="#130F26" stroke="#130F26" stroke-width="3" stroke-miterlimit="10"/>
<path d="M531.019 223.778C528.312 227.78 517.066 241.694 515.92 243.087C487.849 277.227 452.148 283.294 411.247 281.973C376.943 280.431 342.327 294.397 318.744 323.08C315.975 326.447 313.534 329.889 311.208 333.427C294.493 359.193 289.464 389.896 295.54 418.441C296.885 424.607 298.652 430.732 301.034 436.583C303.668 442.835 307.011 448.699 310.968 454.288L311.084 454.383C314.148 458.459 317.614 462.282 321.482 465.852C323.212 452.872 326.983 440.013 333.181 427.982C336.584 421.243 340.662 414.865 345.511 408.731C346.084 408.034 346.561 407.454 347.134 406.757C359.069 392.242 373.815 381.4 389.775 374.282C398.581 370.429 407.912 367.591 417.25 365.927C417.25 365.927 430.864 362.135 437.781 360.816C462.889 355.575 482.785 343.907 497.333 332.124C516.532 316.576 528.397 293.634 530.597 268.973C531.665 254.671 532.508 238.042 531.019 223.778Z" fill="white"/>
<path opacity="0.1" d="M322.086 459.842C322.086 459.842 322.055 416.487 375.467 383.915C410.343 362.615 454.881 367.728 485.153 349.543C506.4 336.78 529.385 310.336 536.368 272.356C536.368 272.356 515.64 305.292 497.5 315C477.158 325.887 441.5 329 441.5 329C441.5 329 449.088 322.933 454 317C458.186 311.944 459 301.5 459 301.5C459 301.5 450.703 312.479 425 319C401.042 325.079 382.162 326.567 362.388 336.194C342.615 345.821 323.033 364.52 313.016 378.51C303 392.5 298.24 413.266 298.24 413.266L298.926 434.655L322.086 459.842Z" fill="#130F26"/>
<path d="M488.395 365.453L488.491 365.337C500.833 380.351 504.99 400.118 500.253 418.41C499.441 421.051 498.535 423.809 497.512 426.471C493.421 437.121 487.597 447.513 479.959 456.803C457.33 484.324 424.058 497.838 391.023 496.172C382.36 494.887 374.808 492.96 368.505 490.697C363.088 488.774 358.497 486.556 354.541 484.275C365.272 490.374 377.686 491.824 389.248 488.874C389.766 488.716 390.189 488.675 390.708 488.517C392.474 488.023 394.336 487.413 396.083 486.708C396.485 486.455 396.908 486.414 397.31 486.161C399.056 485.455 400.666 484.443 402.392 483.527C402.794 483.274 403.292 482.905 403.694 482.652C404.192 482.283 404.69 481.913 405.093 481.66C405.686 481.175 406.491 480.669 407.084 480.184C407.275 479.952 407.487 479.931 407.678 479.699C413.325 475.194 418.604 470.193 423.378 464.387C424.141 463.458 424.905 462.529 425.669 461.6C436.281 447.748 442.745 431.849 445.014 415.614C501.28 400.375 488.846 366.797 488.395 365.453Z" fill="white"/>
<path d="M425.437 461.409C424.673 462.338 423.909 463.267 423.146 464.196C418.372 470.002 413.093 475.004 407.446 479.508C407.255 479.74 407.043 479.761 406.852 479.993C406.259 480.478 405.57 481.08 404.861 481.47C404.363 481.839 403.865 482.208 403.462 482.461C403.06 482.714 402.562 483.083 402.16 483.336C400.55 484.348 398.92 485.149 397.078 485.97C396.676 486.223 396.157 486.381 395.851 486.517C394.104 487.223 392.358 487.928 390.476 488.326C389.957 488.484 389.534 488.525 389.016 488.683C376.725 491.811 363.191 489.831 352.03 482.601C352.494 482.982 353.169 483.343 353.845 483.703C351.703 482.526 349.636 481.021 347.664 479.4C333.515 467.766 327.925 449.741 331.538 433.054C337.383 429.491 352.58 423.302 387.812 422.298C412.081 421.623 430.628 419.161 444.877 415.307C442.513 431.658 436.144 447.441 425.437 461.409Z" fill="#FFC10D"/>
<path d="M488.395 365.453C488.962 366.892 501.28 400.375 444.993 415.402C447.691 396.99 445.212 378.019 437.665 360.72C447.187 357.65 456.374 353.332 465.132 347.882C470.474 350.133 475.569 353.155 480.325 357.065C483.34 359.545 486.069 362.372 488.491 365.337L488.395 365.453Z" fill="white"/>
<path d="M469.607 346.696C469.607 346.696 448.108 357.24 437.051 357.685L431.437 358.129L433.368 362.636C440.096 378.095 442.602 395.142 440.702 411.874C426.316 415.421 408.479 417.493 387.613 418.047C351.727 418.902 335.609 425.502 329.15 429.338L328.441 429.728L327.295 431.122L327.07 432.105C322.932 451.085 329.743 470.698 344.704 482.999C346.908 484.811 349.302 486.391 351.465 487.78C351.581 487.875 351.908 487.95 352.024 488.045C356.445 490.707 361.363 492.999 366.78 494.923C371.637 496.581 376.801 498.102 382.463 499.254L381.603 500.299L390.512 500.812C426.01 502.557 461.001 486.952 486.337 462.048C530.969 418.169 517.713 362.895 469.607 346.696ZM443.586 363.448C451.11 360.681 458.456 357.184 465.413 352.979C472.78 356.312 479.35 361.324 484.289 367.137C484.289 367.137 484.31 367.349 484.426 367.444C484.426 367.444 484.542 367.539 484.446 367.655C484.562 367.751 484.467 367.867 484.583 367.962L484.603 368.174C484.719 368.269 484.624 368.385 484.644 368.597C484.76 368.692 484.665 368.808 484.781 368.904C484.801 369.115 484.801 369.115 484.822 369.327C484.842 369.538 484.842 369.538 484.863 369.75C484.883 369.961 484.999 370.056 484.904 370.172C484.924 370.384 485.04 370.479 485.061 370.691C485.081 370.902 485.102 371.114 485.218 371.209C485.238 371.421 485.259 371.632 485.279 371.844C485.3 372.055 485.32 372.267 485.341 372.478C485.361 372.689 485.382 372.901 485.402 373.112C485.423 373.324 485.443 373.535 485.464 373.747C485.484 373.958 485.505 374.17 485.43 374.497C485.45 374.709 485.471 374.92 485.491 375.132C485.512 375.343 485.437 375.671 485.457 375.882C485.478 376.094 485.498 376.305 485.423 376.633C485.444 376.845 485.369 377.172 485.294 377.5C485.314 377.711 485.239 378.039 485.26 378.25C485.185 378.578 485.205 378.789 485.13 379.117C485.151 379.328 485.076 379.656 484.98 379.772C484.905 380.1 484.83 380.427 484.755 380.755C484.776 380.966 484.585 381.199 484.605 381.41C484.53 381.738 484.455 382.065 484.285 382.509C484.306 382.721 484.115 382.953 484.135 383.164C484.06 383.492 483.89 383.936 483.719 384.379C483.624 384.496 483.549 384.823 483.453 384.939C483.187 385.499 482.921 386.059 482.56 386.735C482.199 387.411 481.933 387.971 481.571 388.647C481.38 388.879 481.285 388.995 481.21 389.323C480.923 389.671 480.657 390.231 480.371 390.579C480.18 390.811 479.989 391.044 479.798 391.276C479.512 391.624 479.225 391.973 478.939 392.321C478.748 392.553 478.557 392.786 478.366 393.018C478.079 393.366 477.793 393.715 477.507 394.063C477.316 394.295 477.125 394.527 476.722 394.78C476.436 395.129 476.033 395.382 475.747 395.73C475.556 395.962 475.249 396.099 474.963 396.448C474.56 396.701 474.178 397.165 473.776 397.418C473.585 397.65 473.278 397.787 473.087 398.019C472.589 398.389 472.187 398.642 471.689 399.011C471.498 399.243 471.191 399.38 471.095 399.496C470.502 399.981 469.697 400.487 468.988 400.877L468.892 400.993C468.088 401.499 467.283 402.005 466.573 402.395C466.266 402.532 466.076 402.764 465.864 402.785C465.25 403.059 464.752 403.428 464.043 403.818C463.736 403.955 463.429 404.092 463.027 404.345C462.413 404.618 461.915 404.987 461.397 405.145C461.09 405.282 460.687 405.535 460.264 405.577C459.65 405.85 459.132 406.008 458.518 406.282C458.116 406.535 457.693 406.576 457.29 406.829C456.677 407.103 456.063 407.377 455.544 407.534C455.142 407.787 454.719 407.829 454.317 408.082C453.703 408.356 452.973 408.534 452.359 408.808C451.841 408.966 451.534 409.102 451.015 409.26C450.804 409.281 450.708 409.397 450.497 409.418C451.422 393.635 449.155 377.952 443.586 363.448ZM350.644 476.011C338.815 466.285 333.185 451.146 335.672 436.064C354.382 428.676 357.888 429.612 389.409 428.866C409.102 428.32 431.448 427.62 438.705 425.413C438.917 425.393 437.887 426.881 437.908 427.093C437.533 428.731 436.946 430.39 436.36 432.048C436.094 432.608 435.944 433.264 435.774 433.707C435.358 434.922 434.942 436.137 434.41 437.257C434.144 437.817 433.899 438.588 433.633 439.148C433.101 440.268 432.569 441.387 432.133 442.391C431.771 443.067 431.505 443.627 431.144 444.303C430.612 445.423 429.964 446.447 429.432 447.567C429.166 448.126 428.805 448.802 428.423 449.267C427.68 450.407 426.936 451.548 426.193 452.688C425.811 453.153 425.641 453.596 425.259 454.061C424.133 455.666 423.104 457.155 421.978 458.76C421.31 459.572 420.546 460.501 419.782 461.43C415.295 466.888 410.323 471.753 404.771 476.141L404.178 476.626C403.584 477.111 403.086 477.481 402.493 477.966C401.995 478.335 401.593 478.588 401.19 478.841L400.883 478.978C400.577 479.115 400.29 479.463 399.983 479.6C398.374 480.612 396.955 481.392 395.42 482.076C395.113 482.213 394.711 482.466 394.288 482.508C392.849 483.076 391.198 483.665 389.431 484.159L389.009 484.2C388.797 484.221 388.49 484.358 388.279 484.379C387.126 484.599 385.973 484.818 384.82 485.038C384.609 485.059 384.302 485.196 383.975 485.121C383.033 485.321 382.071 485.308 381.226 485.391C380.052 485.4 378.995 485.504 377.822 485.512C377.706 485.417 377.61 485.533 377.494 485.438C370.973 485.331 364.636 483.818 358.694 480.879L358.578 480.783C357.344 480.157 355.993 479.436 354.854 478.694C353.196 478.109 351.92 477.06 350.644 476.011ZM394.767 491.854C395.804 491.539 396.724 491.128 397.645 490.718C398.164 490.56 398.566 490.307 398.968 490.054L399.064 489.938C399.678 489.664 400.292 489.39 400.79 489.021C401.097 488.884 401.403 488.748 401.71 488.611C402.631 488.2 403.532 487.578 404.548 487.051C404.95 486.798 405.353 486.545 405.755 486.292L406.062 486.155C406.56 485.786 407.058 485.417 407.672 485.143C408.476 484.637 409.07 484.152 409.759 483.551C409.95 483.318 410.161 483.298 410.352 483.065C416.306 478.424 421.872 473.074 426.741 467.152C427.505 466.223 428.364 465.178 429.128 464.249C430.369 462.739 431.494 461.134 432.504 459.434C432.599 459.318 432.695 459.202 432.79 459.086C433.915 457.481 434.829 455.897 435.838 454.196C435.934 454.08 436.125 453.848 436.104 453.636C437.018 452.052 437.932 450.468 438.73 448.789C438.921 448.556 438.9 448.345 439.091 448.113C439.889 446.433 440.687 444.754 441.389 443.19C441.58 442.958 441.655 442.63 441.635 442.419C442.432 440.739 443.019 439.08 443.605 437.422C443.68 437.094 443.776 436.978 443.851 436.65C444.437 434.992 445.119 433.217 445.589 431.463C445.664 431.135 445.76 431.019 445.835 430.691C446.305 428.937 446.871 427.067 447.341 425.313C447.321 425.101 447.416 424.985 447.491 424.657C447.641 424.002 447.696 423.463 447.962 422.903C460.669 418.56 485.395 410.475 496.592 391.655C499.512 397.56 497.25 411.659 495.744 417.038C495.123 419.447 494.271 421.666 493.439 424.096L493.248 424.328L493.098 424.983C489.103 435.516 483.524 445.138 476.363 453.847C456.429 478.328 426.083 492.302 394.767 491.854Z" fill="#130F26"/>
<path d="M352.262 482.791C350.775 481.763 349.288 480.735 347.78 479.495C347.432 479.209 347.084 478.923 346.62 478.541C346.04 478.065 345.576 477.683 345.208 477.186C345.092 477.09 344.976 476.995 344.86 476.9C335.807 468.288 332.19 458.502 331.043 449.968C330.08 443.338 330.502 436.678 332.329 430.201C332.724 428.774 333.065 427.887 333.065 427.887C326.866 439.917 323.096 452.777 321.366 465.756C323.494 467.896 325.719 469.919 328.038 471.826C328.618 472.303 329.314 472.875 329.894 473.352L330.01 473.447C344.909 485.114 361.936 492.302 379.495 495.062C383.403 495.746 387.271 496.006 391.139 496.267C373.792 493.487 361.26 488.633 352.262 482.791Z" fill="#EE364C"/>
<path d="M345.208 477.186C345.672 477.567 346.252 478.044 346.62 478.541C346.156 478.16 345.576 477.683 345.208 477.186Z" fill="#575757"/>
<path d="M343.64 481.93C343.408 481.739 343.06 481.453 342.828 481.262C342.48 480.976 342.248 480.785 341.9 480.499L348.093 473.913C348.325 474.104 348.557 474.295 348.905 474.581C349.021 474.676 349.137 474.772 349.253 474.867L349.601 475.153L343.64 481.93Z" fill="#130F26"/>
<path d="M342.112 480.479L341.764 480.193L347.956 473.607L348.304 473.893L342.112 480.479Z" fill="#130F26"/>
<path d="M352.262 482.791C350.216 481.498 348.36 479.972 346.62 478.541C346.968 478.828 347.316 479.114 347.78 479.495C349.172 480.639 350.659 481.668 352.262 482.791Z" fill="#130F26"/>
<path d="M344.916 482.979C344.684 482.788 344.336 482.502 344.104 482.311L343.756 482.025L349.601 475.153C351.224 476.488 352.848 477.823 354.779 479.021L349.862 486.656C347.911 485.247 346.307 484.123 344.916 482.979Z" fill="#130F26"/>
<path d="M333.065 427.887C333.065 427.887 332.724 428.774 332.329 430.201C332.574 429.429 332.82 428.658 333.065 427.887Z" fill="#575757"/>
<path d="M327.956 429.135C328.331 427.497 328.672 426.61 328.767 426.494L337.267 429.395C337.001 429.955 336.947 430.494 336.797 431.15L336.722 431.477L327.956 429.135Z" fill="#130F26"/>
<path d="M325.174 475.31C322.97 473.498 320.746 471.475 318.27 469.049L316.625 467.503L316.939 465.23C318.703 451.5 322.76 438.292 329.033 425.934L337.267 429.395C337.172 429.512 337.022 430.167 336.701 431.266C335.024 437.088 334.657 443.209 335.558 449.205C336.808 458.796 341.011 466.923 347.956 473.607L348.304 473.893C348.768 474.274 349.232 474.656 349.696 475.037L350.276 475.514C351.456 476.679 352.943 477.707 354.874 478.905C364.104 484.938 376.595 489.369 391.977 491.701L405.088 493.723L392.319 500.741L391.03 500.654C386.951 500.414 382.756 500.079 378.847 499.395C360.095 496.433 342.372 488.673 327.357 476.91L327.241 476.815C326.449 476.359 325.754 475.787 325.174 475.31ZM326.106 464.01C327.867 465.652 329.49 466.987 330.998 468.226C331.462 468.608 332.042 469.085 332.506 469.466L332.622 469.561C332.969 469.848 333.317 470.134 333.665 470.42C330.888 465.996 328.821 461.181 327.558 455.861C326.979 458.694 326.495 461.41 326.106 464.01Z" fill="#130F26"/>
<path d="M398.708 440.015C381.157 441.739 379.477 427.706 377.571 408.038C375.664 388.371 374.654 383.453 392.205 381.73C409.756 380.006 426.88 358.47 426.962 401.161C426.965 421.015 416.259 438.292 398.708 440.015Z" fill="#130F26"/>
<path d="M324.635 475.256L318.154 468.954C256.102 394.773 296.84 275.486 411.451 277.469C517.713 279.205 533.771 201.518 533.771 201.518C533.771 201.518 545.306 245.646 543.645 263.742C541.357 289.693 539.808 326.566 506.141 348.126C465.634 373.986 425.798 373.734 394.374 380.983C382.062 383.9 361.457 395.957 350.286 409.543C349.904 410.008 349.617 410.356 349.235 410.821L348.758 411.401C344.196 417.187 340.213 423.449 336.885 429.86C331.048 441.215 327.332 453.535 325.677 466.187L324.635 475.256ZM314.645 451.472C315.866 453.06 317.087 454.648 318.404 456.12C320.592 445.657 324.089 435.493 329.033 425.934C332.627 418.963 336.875 412.141 341.82 405.891L342.297 405.31C342.679 404.846 343.061 404.382 343.539 403.801C355.664 389.053 370.581 377.768 387.864 369.987C396.977 365.996 406.519 363.138 416.164 361.337C417.931 360.843 430.202 357.503 436.791 356.109C457.5 351.727 481.673 344.55 498.84 330.055C540.505 295.221 530.558 243.251 529.172 233.353C525.278 238.325 519.474 245.62 519.474 245.62C488.252 283.592 450.266 290.311 414.175 289.051C379.584 287.857 344.183 299.232 322.223 325.94C319.55 329.192 317.204 332.518 315.069 335.823C299.268 360.005 293.864 389.037 300.035 417.466C301.359 423.421 302.99 429.238 305.235 434.782C307.733 440.728 310.844 446.401 314.645 451.472Z" fill="#130F26"/>
<path d="M409.759 403.17C413.121 399.317 412.166 393.86 415.631 394.374C419.096 394.888 419.643 399.424 420.653 404.342C421.807 410.74 416.466 411.798 413.008 412.458C401.807 414.732 406.588 406.791 409.759 403.17Z" fill="#54C8EA"/>
<g filter="url(#filter0_d_1:581)">
<g filter="url(#filter1_d_1:581)">
<path d="M298.74 589.304C294.912 551.463 303.38 516.795 321.336 496.786C331.414 485.395 344.231 479.175 358.174 479.026C407.568 478.29 463.413 462.143 464.007 461.928L480.273 457.264L470.031 470.61C467.365 474.064 462.486 476.976 456.967 479.211C500.469 483.175 541.154 471.687 578.045 444.664C611.077 420.421 628.664 392.17 628.833 391.872L650.306 356.21L620.179 458.96L564.895 514.96L418.848 507.429L416.128 507.781C390.801 510.234 366.003 518.421 344.24 531.395C334.991 536.876 328.007 545.448 324.556 555.704L324.514 555.917L300.726 610.668L298.74 589.304Z" fill="#FF005C"/>
<path d="M298.74 589.304C294.912 551.463 303.38 516.795 321.336 496.786C331.414 485.395 344.231 479.175 358.174 479.026C407.568 478.29 463.413 462.143 464.007 461.928L480.273 457.264L470.031 470.61C467.365 474.064 462.486 476.976 456.967 479.211C500.469 483.175 541.154 471.687 578.045 444.664C611.077 420.421 628.664 392.17 628.833 391.872L650.306 356.21L620.179 458.96L564.895 514.96L418.848 507.429L416.128 507.781C390.801 510.234 366.003 518.421 344.24 531.395C334.991 536.876 328.007 545.448 324.556 555.704L324.514 555.917L300.726 610.668L298.74 589.304Z" stroke="#130F26" stroke-width="3" stroke-miterlimit="10"/>
</g>
<path d="M633.391 394.528L615.45 456.05L562.92 509.276L418.956 501.82L415.811 502.089C389.591 504.588 364.326 512.905 341.672 526.478C331.406 532.643 323.447 542.24 319.66 553.645L304.477 588.768C298.929 532.707 321.211 485.059 358.532 484.506C409.372 483.72 465.726 467.231 465.726 467.231C458.785 476.143 429.807 480.313 429.807 480.313C562.924 510.38 633.391 394.528 633.391 394.528ZM667.474 317.168L623.934 388.708C623.638 389.091 606.516 416.661 574.289 440.178C543.461 462.753 509.875 474.082 473.954 474.247C474.082 474.161 474.123 473.949 474.251 473.863L494.861 447.085L462.416 456.539C461.822 456.754 406.698 472.6 358.069 473.375C342.554 473.659 328.421 480.395 317.114 492.981C298.143 514.228 289.255 550.47 293.13 589.755L297.313 631.971L314.227 593.1L329.41 557.976L329.493 557.551L329.577 557.126C332.65 548.231 338.788 540.598 346.891 535.887C368.018 523.34 392.094 515.454 416.529 513.048L418.781 512.825L561.98 520.242L566.912 520.432L570.471 516.932L623.213 463.748L625.162 461.699L625.918 458.977L643.944 397.581L667.474 317.168Z" fill="#2D1429"/>
<path opacity="0.1" d="M301.473 592.819C301.473 592.819 301.414 550.966 333.865 518.44C366.317 485.915 402.197 498.88 424.186 489.814C424.186 489.814 404.88 500.397 395.829 501.501C395.829 501.501 470.321 493.299 512.436 502.071C554.551 510.844 599.698 461.476 599.698 461.476L641.367 389.902L621.704 457.381L577.518 501.858L558.439 516.35L463.671 512.535L405.725 511.27L354.704 520.852L335.757 536.915L318.663 572.77L301.473 592.819Z" fill="#130F26" stroke="#130F26" stroke-width="3" stroke-miterlimit="10"/>
</g>
<g filter="url(#filter2_f_1:581)">
<path d="M357.371 565.113C365.147 555.148 378.383 548.623 389.521 549.283C390.465 549.34 391.41 549.398 392.238 549.652C398.542 550.757 402.9 554.219 404.717 559.393C404.959 560.083 405.242 560.888 405.328 561.658C407.408 565.476 411.664 570.754 415.21 571.376C415.407 571.411 415.604 571.446 415.801 571.48L428.994 573.255L414.43 580.734C406.756 584.675 398.628 586.27 391.733 585.06C390.354 584.818 383.794 581.401 381.102 579.526C379.638 578.514 378.486 577.341 377.648 576.007C375.654 572.96 373.275 570.924 371.108 570.544C368.351 570.06 365.128 570.358 361.834 571.507L348.346 576.261L357.371 565.113Z" fill="#EC1260"/>
<path d="M412.934 576.416C407.054 579.412 400.574 580.718 394.774 579.816C394.579 579.782 388.919 577.212 385.945 575.003C384.927 574.191 383.908 573.38 383.355 572.332C381.658 569.604 378.674 566.336 374.586 565.625C370.692 564.949 366.499 565.489 362.276 566.976C368.348 559.359 378.602 554.268 387.197 554.81C387.936 554.833 388.675 554.855 389.299 555.07C394.36 555.949 397.729 558.756 399.086 562.587C399.325 563.263 399.605 564.052 399.689 564.807C399.689 564.807 404.993 575.141 412.196 576.393C412.35 576.314 412.585 576.461 412.934 576.416ZM444.479 570.054L418.443 566.692C418.248 566.658 418.248 566.658 418.053 566.624C416.261 566.207 413.003 562.68 410.832 559.13C410.747 558.375 410.468 557.586 410.229 556.91C408.034 550.712 402.748 546.621 395.156 545.301C393.988 545.098 393.015 544.929 391.887 544.838C378.624 544.014 362.759 551.831 353.421 563.639L336.4 585.215L362.903 575.968C364.994 575.168 366.976 575.09 368.728 575.394C369.312 575.496 370.914 576.409 372.845 579.282C373.948 580.849 375.206 582.336 377.082 583.509C378.999 584.794 386.346 589.032 389.111 589.618C397.287 591.039 406.717 589.294 415.848 584.642L444.479 570.054Z" fill="#2D1429"/>
</g>
<g opacity="0.2" filter="url(#filter3_f_1:581)">
<ellipse cx="418.5" cy="428.5" rx="118.5" ry="113.5" fill="#FF005C"/>
</g>
<defs>
<filter id="filter0_d_1:581" x="288.238" y="317.168" width="383.236" height="322.803" filterUnits="userSpaceOnUse" color-interpolation-filters="sRGB">
<feFlood flood-opacity="0" result="BackgroundImageFix"/>
<feColorMatrix in="SourceAlpha" type="matrix" values="0 0 0 0 0 0 0 0 0 0 0 0 0 0 0 0 0 0 127 0" result="hardAlpha"/>
<feOffset dy="4"/>
<feGaussianBlur stdDeviation="2"/>
<feComposite in2="hardAlpha" operator="out"/>
<feColorMatrix type="matrix" values="0 0 0 0 0 0 0 0 0 0 0 0 0 0 0 0 0 0 0.25 0"/>
<feBlend mode="normal" in2="BackgroundImageFix" result="effect1_dropShadow_1:581"/>
<feBlend mode="normal" in="SourceGraphic" in2="effect1_dropShadow_1:581" result="shape"/>
</filter>
<filter id="filter1_d_1:581" x="246.336" y="265.481" width="458.679" height="371.143" filterUnits="userSpaceOnUse" color-interpolation-filters="sRGB">
<feFlood flood-opacity="0" result="BackgroundImageFix"/>
<feColorMatrix in="SourceAlpha" type="matrix" values="0 0 0 0 0 0 0 0 0 0 0 0 0 0 0 0 0 0 127 0" result="hardAlpha"/>
<feOffset dy="-30"/>
<feGaussianBlur stdDeviation="25"/>
<feComposite in2="hardAlpha" operator="out"/>
<feColorMatrix type="matrix" values="0 0 0 0 0.933333 0 0 0 0 0.211765 0 0 0 0 0.298039 0 0 0 0.4 0"/>
<feBlend mode="normal" in2="BackgroundImageFix" result="effect1_dropShadow_1:581"/>
<feBlend mode="normal" in="SourceGraphic" in2="effect1_dropShadow_1:581" result="shape"/>
</filter>
<filter id="filter2_f_1:581" x="321.4" y="529.779" width="138.079" height="75.3207" filterUnits="userSpaceOnUse" color-interpolation-filters="sRGB">
<feFlood flood-opacity="0" result="BackgroundImageFix"/>
<feBlend mode="normal" in="SourceGraphic" in2="BackgroundImageFix" result="shape"/>
<feGaussianBlur stdDeviation="7.5" result="effect1_foregroundBlur_1:581"/>
</filter>
<filter id="filter3_f_1:581" x="0" y="15" width="837" height="827" filterUnits="userSpaceOnUse" color-interpolation-filters="sRGB">
<feFlood flood-opacity="0" result="BackgroundImageFix"/>
<feBlend mode="normal" in="SourceGraphic" in2="BackgroundImageFix" result="shape"/>
<feGaussianBlur stdDeviation="150" result="effect1_foregroundBlur_1:581"/>
</filter>
</defs>
</svg>
