<svg width="1440" height="152" viewBox="0 0 1440 152" fill="none" xmlns="http://www.w3.org/2000/svg">
<path d="M240.08 110C240.08 102.227 246.6 113.5 255 113.5C263.4 113.5 302.287 122 320.265 128L333.152 110H355.108L372.29 128L428.611 95.5L460.113 110L483.023 95.5L515.5 73.5L553.185 66.5L633.848 42.5C649.281 43 680.814 42 683.487 34C686.16 26 701.465 8 708.784 0L738.853 15.5L858.654 66.5L900.179 95.5L1004.71 110H1168.42C1187.35 116 1226.55 128 1231.9 128C1237.24 128 1336.9 132.667 1386.07 135L1440 152H0L31.5015 128L79.5 118.5L94 101.5L106.5 102.227L128.5 113.5L149 109.023H165L185 102.227L204.5 113.5L223.29 109.023L240.08 110Z" fill="#1A1629"/>
</svg>
